<svg xmlns="http://www.w3.org/2000/svg" width="148.671" height="247.649" viewBox="0 0 148.671 247.649"><defs><style>.a{fill:#131e33;}</style></defs><g transform="translate(-33.011 -31.07)"><path class="a" d="M130.952,66.954a2.355,2.355,0,0,0-.669-3.5,11.949,11.949,0,0,0-3.605-1.243c-1.79-.3-3.614-.43-5.181-1.431-2.523-1.608-5-3.282-7.568-4.975l-1.9,0V48.6h6.628v1.342H120.4V38.513h-1.743v1.342H112.03V32.813h1.341V31.07H101.942v1.743h1.342v7.042H96.657V38.513H94.913v11.43h1.744V48.6h6.628v7.23l-2.55.005c-2.086,1.407-4.1,2.8-6.155,4.144a11.616,11.616,0,0,1-5.362,2.054A13.488,13.488,0,0,0,84.8,63.266c-1.647.781-1.921,2.4-.913,3.92A13.506,13.506,0,0,0,85.123,68.7c1.359,1.505,2.85,2.909,4.078,4.514a23.558,23.558,0,0,1,5.094,14.3c.017,1.32-.061,2.361-1.39,3.15a1.816,1.816,0,0,0-.146,3.005,8.7,8.7,0,0,0,2.032,1.46,25.136,25.136,0,0,0,9.81,2.109,39.4,39.4,0,0,0,12.15-.965c1.972-.507,3.954-1.064,5.385-2.7a1.824,1.824,0,0,0,.014-2.614c-.356-.376-.818-.648-1.188-1.012a1.354,1.354,0,0,1-.447-.741,22.77,22.77,0,0,1,2.352-11.685,27.044,27.044,0,0,1,5.258-7.319,27.847,27.847,0,0,0,2.828-3.247M89.794,101.962a7.465,7.465,0,0,0-1.642,4.294,9.44,9.44,0,0,0,5.892,9.231,27.835,27.835,0,0,0,9.446,2.052,56.366,56.366,0,0,0,8.891-.2,38.119,38.119,0,0,0,7.47-1.57,9.04,9.04,0,0,0,1.563-16.94,2.569,2.569,0,0,0-2.33-.146,26.918,26.918,0,0,1-8.67,1.518c-2.512.128-5.043-.08-7.563-.158a26.914,26.914,0,0,1-7.516-1.4,2.326,2.326,0,0,0-1.2-.039c-1.936.467-3.161,1.916-4.337,3.355m45.772,63.308a5.267,5.267,0,0,0-4.293-5.27c-.6-.133-1.24-.078-1.67-.729a57.2,57.2,0,0,1-5.1-9.466c-2.84-6.8-3.621-13.978-3.895-21.237-.125-3.3-.022-6.615-.022-10.009a47.33,47.33,0,0,1-26.131.286c-.231,3.865-.378,7.692-.71,11.5-.27,3.1-.691,6.183-1.169,9.253A49.844,49.844,0,0,1,86.9,156.32c-.952,1.711-1.684,3.467-4.108,3.972a4.7,4.7,0,0,0-3.295,6.245,6.4,6.4,0,0,0,4.551,3.488,68.91,68.91,0,0,0,7.661,1.582,80.888,80.888,0,0,0,9.81.967c7.813.146,15.653.325,23.381-1.169a48.9,48.9,0,0,0,7.172-1.968,4.792,4.792,0,0,0,3.494-4.166M70.276,192c0-.522,0-1.059.005-1.593l-4.625-1.132q-1.477.589-2.78,1.22ZM58.5,193.092l11.8,1.554c-.005-.429-.014-.857-.014-1.29l-9.752-1.611a22.207,22.207,0,0,0-2.031,1.347m-2.8,2.791,14.715,1.036a2.353,2.353,0,0,1-.1-.565c-.007-.189,0-.381-.008-.57l-13.4-1.337a10.231,10.231,0,0,0-1.207,1.436m-1.145,2.891,17.731.249A11.572,11.572,0,0,1,71,197.97l0-.005L54.936,197.3a5.563,5.563,0,0,0-.378,1.474m.49,2.9,20.428-.848a18.14,18.14,0,0,1-1.773-.89l-19.122.267a5.884,5.884,0,0,0,.467,1.47m2.137,2.829,22.322-2.227c-.217-.068-.437-.121-.653-.192-.5-.163-1-.339-1.5-.515L55.9,203.085a11.034,11.034,0,0,0,1.285,1.422m3.707,2.67,22.691-3.75c-.7-.175-1.4-.368-2.1-.565l-22.668,2.984a23.4,23.4,0,0,0,2.077,1.33m5.2,2.426,21.577-5.285q-1.07-.2-2.133-.436L63.28,208.405c.879.413,1.818.811,2.81,1.2m6.5,2.111L91.8,204.956q-1.094-.135-2.18-.3l-20.487,6.033q1.649.538,3.447,1.028m7.608,1.732,15.7-8.069c-.4-.034-.8-.07-1.2-.1-.31-.023-.618-.073-.927-.1L76.2,212.617q1.933.44,3.991.828m8.507,1.284L99.74,205.7q-1-.08-2-.167l-13.448,8.6c1.435.218,2.909.415,4.413.592m9.133.8,5.675-9.579c-.665-.03-1.33-.074-2-.12l-8.375,9.358q2.309.2,4.7.342m4.638.2v0c-1.495-.046-2.975-.107-4.432-.189,1.46.081,2.934.147,4.431.192m5.184.082c.7,0,1.379-.027,2.073-.035-.721.009-1.434.029-2.161.029h-.274l.022-9.821c-.363.007-.727.023-1.089.025-.308,0-.616-.017-.924-.021l-2.829,9.74c1.706.053,3.432.085,5.182.085m4.323-.067,0-.008c-.745.018-1.495.03-2.247.039.75-.012,1.507-.013,2.25-.031m4.788-.2-5.7-9.692c-.66.034-1.32.067-1.98.09l2.885,9.795c1.621-.04,3.214-.108,4.791-.193m.888-.046c-.293.017-.592.03-.888.046l.008.013c.3-.016.584-.042.88-.059m3.707-.249-.014-.016c-.271.023-.537.051-.811.072.273-.021.556-.034.826-.056m4.6-.462L114.8,205.62c-.657.048-1.315.1-1.972.138l8.522,9.475c1.567-.129,3.11-.274,4.615-.446m4.1-.511c-1.33.192-2.714.353-4.1.511l.02.017c1.392-.158,2.748-.337,4.083-.528m4.526-.737-15.923-8.209-2.077.16,13.723,8.75q2.2-.321,4.276-.7m7.738-1.719-19.553-6.892c-.732.1-1.466.162-2.2.23l17.95,7.588q1.97-.436,3.8-.925m6.633-2.114-22.182-5.448-.417.086c-.565.113-1.139.19-1.709.286l21.1,6.195c1.123-.357,2.2-.73,3.213-1.118m5.31-2.446L130.9,203.383q-1.094.25-2.191.481l23.055,4.674q1.35-.62,2.514-1.278m3.8-2.7-22.9-2.293q-1.107.331-2.23.62l23.4,3.071a16.566,16.566,0,0,0,1.734-1.4m-13.609-11.21,10.179-1.687c-.763-.446-1.591-.88-2.478-1.3l-7.709,1.563c.005.476.007.954.008,1.424m-.053,2.444,13.937-1.4a15.742,15.742,0,0,0-1.674-1.414l-12.222,1.6c-.007.4-.025.8-.042,1.205m-.541,2.187,16.5-.691a7.278,7.278,0,0,0-.818-1.48l-15.2,1.064c0,.065,0,.13-.009.2a1.778,1.778,0,0,1-.477.912m-3.108,1.989,19.962.271a5.194,5.194,0,0,0,.08-.888,5.026,5.026,0,0,0-.051-.61l-18.109.247c-.022.012-.046.031-.068.042q-.9.473-1.814.939M137.14,201.6l22.219,1.555a7.831,7.831,0,0,0,.9-1.471l-21.211-.888c-.629.292-1.267.558-1.911.8m24.382-2.253c0,9.615-24.115,17.41-53.865,17.41s-53.865-7.8-53.865-17.41c0-4.92,6.324-9.36,16.474-12.526l.008.853c-.527.163-1.081.316-1.586.485l1.594.47,0,.37c0-.068,0-.129,0-.2a16.7,16.7,0,0,0,3.064,2.351l-.11-.027c.224.136.46.239.689.364.274.154.55.3.83.44s.561.279.847.4c.553.247,1.111.475,1.679.68.133.048.269.089.4.134q.83.288,1.671.535c.113.033.227.067.34.1q1.086.311,2.181.59a100.43,100.43,0,0,0,10.564,2.019c3.153.449,6.346.647,9.527.819,3.044.164,6.1.313,9.146.185a94.243,94.243,0,0,0,23.711-3.558,30.514,30.514,0,0,0,6.569-2.705l.1-.023c.46-.27.924-.535,1.363-.849.518-.37.964-.841,1.574-1.381,0,.507.007,1.006.012,1.505l4.954-1.217q-1.516-.595-3.2-1.144l-1.737.51.016-1.885c10.485,3.176,17.044,7.691,17.044,12.7m20.14-1.268-.2-.767-2.577-.368a15.074,15.074,0,0,1-3.853-1.453,25.6,25.6,0,0,0-8.228-2.64c1.839-1.188,1.62-2.591,1.44-3.753-.13-.819-.265-1.666.389-2.173l1-.762.291-.25-.967-.5-3.17.116a30.351,30.351,0,0,1-5.156-.608l-.222-.038a56.055,56.055,0,0,0-9.373-.993q-.654,0-1.3.027c.012-1.349-2.064-2.544-3.779-3.531-.5-.29-.974-.57-1.392-.84a11.368,11.368,0,0,0-1.4-2.319l-.012-.067c-.018,0-.033-.007-.051-.008a7.176,7.176,0,0,0-2.707-2.193s-3.886-.037-4.192-2.121c-.243-1.65-1.587-1.224-1.587-1.224s-3.477,3.882-27.226,3.784h-.023c-23.749.1-27.226-3.784-27.226-3.784s-1.3-.42-1.587,1.224c-.331,1.923-4.192,2.121-4.192,2.121a7.178,7.178,0,0,0-2.767,2.263l-.016,0,0,.018a11.423,11.423,0,0,0-1.353,2.229c-.425.279-.912.567-1.431.867-1.718.987-3.8,2.182-3.784,3.532-.425-.017-.857-.026-1.293-.026a55.852,55.852,0,0,0-9.386.994l-.164.027a35.093,35.093,0,0,1-4.951.617c-.111,0-.155,0-.226,0l-3.14-.117-1.01.537,1.273.98c.654.5.527,1.312.393,2.171-.188,1.16-.412,2.563,1.439,3.754a25.676,25.676,0,0,0-8.224,2.637A15,15,0,0,1,35.85,196.9l-2.564.368-.2.773,2.125.567a9.592,9.592,0,0,1,3.265,1.851,15.04,15.04,0,0,0,6.269,3.059A5.842,5.842,0,0,0,41.1,207.2a3.1,3.1,0,0,1-1.426,1.914l-1.554.66.305.263c.124.106.245.21.373.316l.293.244,2.326.128a29.6,29.6,0,0,1,5.365,1.083,42.363,42.363,0,0,0,9.706,1.646c-.88,1.385.549,2.794,1.641,3.87.757.742,1.539,1.509,1.289,1.937l-.42.716.621.181c.343.1.691.2,1.04.3l.584.166L63.1,220.4a50.462,50.462,0,0,1,6.252.082c1.8.1,3.663.2,5.555.2a35.713,35.713,0,0,0,5.032-.322c1.106,1.349,4.22,2.344,6.579,3.1,1.657.53,3.369,1.079,3.717,1.5l.515.618.785.061q.777.059,1.559.112l.741.051,1.182-.443a31.732,31.732,0,0,1,5.592-.954,44.043,44.043,0,0,0,8.422-1.577c2.568,1.2,6.654,1.685,10.035,2.09l.162.02c1.478.177,2.874.344,3.973.55l.578.108.5-.04c.575-.047,1.149-.1,1.718-.146l.493-.046.372-.19c.584-.3,1.384-.622,2.23-.963l.175-.07c2.277-.913,5.287-2.118,5.928-3.678a36.627,36.627,0,0,0,4.636.269c1.923,0,3.8-.1,5.621-.2a49.6,49.6,0,0,1,6.184-.08l1.75.21.583-.163c.378-.107.753-.214,1.127-.323l.621-.181-.4-.68c-.249-.43.533-1.195,1.29-1.934,1.089-1.071,2.528-2.481,1.644-3.867a41.333,41.333,0,0,0,9.7-1.649,29.461,29.461,0,0,1,5.37-1.084l2.255-.125.3-.24c.136-.111.267-.223.4-.334l.31-.263-1.518-.647a3.12,3.12,0,0,1-1.432-1.933A5.824,5.824,0,0,0,170,203.565a15.006,15.006,0,0,0,6.3-3.081,9.59,9.59,0,0,1,3.234-1.829Z" transform="translate(0.021 0)"/><path class="a" d="M177.837,225.018v-5.943l3.845-9.158h-3.824l-1.743,5.6h-.042l-1.7-5.6h-3.951l3.844,9.158v5.943Zm3.515,4.441H33.289v2.193H181.352Zm-12.205-19.542h-5.161l-1.807,9.919h-.042l-1.87-9.919h-5.225v15.1h3.187V213.258h.042l2.443,11.759h2.763l2.315-11.759h.043v11.759h3.313Zm-5.559-9.512h-2.257l1.092-5.758h.037Zm.463,2.353.481,2.463h3.219l-3.294-12.926h-3.886l-3.367,12.926h3.219l.463-2.463Zm-10.989-2.443v.416c0,1.774-.37,2.716-1.424,2.716-1.239,0-1.424-1.141-1.424-4.671,0-3.44.147-4.708,1.424-4.708,1.147,0,1.239,1.323,1.239,2.155h3c0-1.466-.167-4.182-4.182-4.182-4.4,0-4.7,2.752-4.7,6.988,0,4.037.554,6.445,3.866,6.445a2.781,2.781,0,0,0,2.849-1.484h.038l.073,1.231h2.129v-6.934H151.6v2.028Zm-11.137-8.021v8.4h-.038l-2.553-8.4h-3.57v12.926h2.774v-8.908h.037l2.72,8.908h3.515V192.294Zm-15.734,27.1H123.6l1.254-6.725h.043Zm4.781,5.626-3.781-15.1h-4.462l-3.866,15.1h3.7l.531-2.876h3.633l.553,2.876Zm-10.027-19.8h7.6v-2.463h-4.5V192.294h-3.107ZM111.873,217.3c0-3.955.128-5.309,1.551-5.309,1.19,0,1.444.973,1.444,3.172h3.442v-.634c0-3.554-1.72-4.907-4.865-4.907-5.056,0-5.268,3.87-5.268,7.74,0,4.547.361,7.953,4.929,7.953,4.418,0,5.332-2.433,5.332-5.69V219.1H115c-.021,2.348-.17,3.849-1.487,3.849-1.487,0-1.636-1.164-1.636-5.647m1.1-16.893,1.09-5.758h.038l1.128,5.758Zm-.759-8.111-3.367,12.926h3.219l.462-2.463h3.164l.48,2.463h3.219L116.1,192.294Zm21.016,0H130.12v12.926h3.108Zm3.458,20.244c1.89,0,2.187.994,2.187,4.675,0,4.526-.573,5.181-2.23,5.181h-.956v-9.856Zm.723-2.622h-5.291v15.1h4.929c4.694,0,5.4-2.559,5.4-8.038,0-5.245-1.509-7.063-5.035-7.063m15.677,0h-8.773v15.1h9.007v-2.876h-5.438v-3.447h4.886v-2.876h-4.886v-3.025h5.2Zm-48.9-17.622v4.834H101.7v-4.834H98.6v12.926H101.7V199.7h2.48v5.521h3.108V192.294Zm-1.212,27.1H100.38l1.254-6.725h.042Zm4.779,5.626-3.781-15.1H99.509l-3.866,15.1h3.7l.531-2.876H103.5l.552,2.876Zm-34.819-15.4c-3.674,0-4.971,2.03-4.971,4.441,0,5.647,6.522,3.828,6.522,7.085,0,.866-.361,1.8-1.614,1.8-1.233,0-1.551-.867-1.551-2.009v-.53H67.876v.973c0,3.151,2.4,3.934,4.993,3.934,3.271,0,5.184-1.375,5.184-4.8,0-5.33-6.523-3.744-6.523-6.9,0-1.1.532-1.628,1.424-1.628a1.124,1.124,0,0,1,1.083.528,3.092,3.092,0,0,1,.3,1.586h3.442v-.359c0-2.327-1.274-4.124-4.844-4.124m-5.824-4.4h2.887v-3.258H67.108Zm10.01-12.926H72.565v12.926h2.776V195.155h.037L77.5,205.221H79.91l2.017-10.066h.038v10.066H84.85V192.294H80.355l-1.573,8.492h-.037Zm7.222,17.326c-3.674,0-4.971,2.03-4.971,4.441,0,5.647,6.522,3.828,6.522,7.085,0,.866-.361,1.8-1.614,1.8-1.233,0-1.551-.867-1.551-2.009v-.53H79.284v.973c0,3.151,2.4,3.934,4.993,3.934,3.271,0,5.184-1.375,5.184-4.8,0-5.33-6.523-3.744-6.523-6.9,0-1.1.532-1.628,1.424-1.628a1.126,1.126,0,0,1,1.083.528,3.092,3.092,0,0,1,.3,1.586h3.442v-.359c0-2.327-1.274-4.124-4.844-4.124m6.283-9.215,1.09-5.758h.038l1.128,5.758Zm-.759-8.111L86.5,205.221h3.218l.463-2.463h3.163l.481,2.463h3.219l-3.294-12.926ZM61.311,222.141v-3.447H66.2v-2.876H61.311v-3.025h5.206v-2.876H57.742v15.1H66.75v-2.876Zm.432-29.847v8.4h-.037l-2.553-8.4H55.582v12.926h2.776v-8.908h.037l2.72,8.908h3.515V192.294Zm-6.21,17.622H51.964v5.647H49.118v-5.647H45.549v15.1h3.569v-6.45h2.846v6.45h3.569Zm-5.315-4.7H53.1v-3.258H50.217ZM37.5,217.3c0-3.955.128-5.309,1.551-5.309,1.19,0,1.444.973,1.444,3.172h3.442v-.634c0-3.554-1.72-4.907-4.865-4.907-5.056,0-5.268,3.87-5.268,7.74,0,4.547.361,7.953,4.929,7.953,4.418,0,5.332-2.433,5.332-5.69V219.1H40.619c-.021,2.348-.17,3.849-1.487,3.849-1.487,0-1.636-1.164-1.636-5.647m9.446-21.872H44.057v9.795h3v-5.558c0-1.285.776-1.774,1.979-1.774a4.365,4.365,0,0,1,.832.072V195.21a2.294,2.294,0,0,0-.48-.037A2.55,2.55,0,0,0,46.98,196.8h-.037Zm-9.954-.887c1.646,0,1.906.852,1.906,4,0,3.874-.5,4.435-1.942,4.435h-.834v-8.437Zm.629-2.245H33.011v12.926H37.3c4.089,0,4.7-2.19,4.7-6.879,0-4.49-1.314-6.047-4.385-6.047m-4.329-4.4H181.352V185.7H33.289ZM178.8,205.221h2.887V192.294h-4.5l-1.572,8.492h-.038l-1.628-8.492H169.4v12.926h2.774V195.155h.038l2.127,10.066h2.405l2.017-10.066h.037Z" transform="translate(0 47.068)"/></g></svg>