<svg xmlns="http://www.w3.org/2000/svg" xmlns:xlink="http://www.w3.org/1999/xlink" width="246.387" height="89.154" viewBox="0 0 246.387 89.154"><defs><style>.a{fill:#142a4f;}.b{clip-path:url(#a);}</style><clipPath id="a"><path class="a" d="M0,65.417H246.387V-23.737H0Z" transform="translate(0 23.737)"/></clipPath></defs><g transform="translate(0 23.737)"><g class="b" transform="translate(0 -23.737)"><g transform="translate(113.468 40.911)"><path class="a" d="M2.726,1.607A1.96,1.96,0,0,0,.513-.583h-1.5V3.973H.337A2.079,2.079,0,0,0,2.726,1.607" transform="translate(0.989 0.583)"/></g><g transform="translate(73.294 63.792)"><path class="a" d="M1.086,0H-.394V4.488H.913A2.046,2.046,0,0,0,3.264,2.156,1.93,1.93,0,0,0,1.086,0" transform="translate(0.394 0)"/></g><g transform="translate(81.028 15.431)"><path class="a" d="M3.3,1.946A2.374,2.374,0,0,0,.624-.706H-1.2V4.811H.41c1.848,0,2.892-.8,2.892-2.866" transform="translate(1.198 0.706)"/></g><g transform="translate(100.84 40.602)"><path class="a" d="M1.607,0C-.275,0-.583,1.638-.583,5.859c0,4.248.308,5.859,2.19,5.859S3.8,10.107,3.8,5.859C3.8,1.638,3.485,0,1.607,0" transform="translate(0.583)"/></g><g transform="translate(149.626 40.91)"><path class="a" d="M2.985,3.977c0-3.583-.289-5.42-2.719-5.42H-1.083v11.1H.329c2.212,0,2.655-1.393,2.655-5.683" transform="translate(1.083 1.443)"/></g><g transform="translate(114.588 63.4)"><path class="a" d="M.846,2.557l.567-.481a2.236,2.236,0,0,0,.98-1.7A1.243,1.243,0,0,0,1.019-.928,1.228,1.228,0,0,0-.307.338a3.231,3.231,0,0,0,.781,1.7Z" transform="translate(0.307 0.928)"/></g><g transform="translate(113.477 70.216)"><path class="a" d="M0,1.935A2.074,2.074,0,0,0,2.178,3.982,2.445,2.445,0,0,0,4.2,3L1.589-.7A3.212,3.212,0,0,0,0,1.935" transform="translate(0 0.702)"/></g><g transform="translate(140.101 15.431)"><path class="a" d="M3.3,1.946A2.374,2.374,0,0,0,.624-.706H-1.2V4.811H.41c1.848,0,2.892-.8,2.892-2.866" transform="translate(1.198 0.706)"/></g></g><g transform="translate(96.293 -7.824)"><path class="a" d="M1.356,0-.492,8.6H3.26L1.408,0Z" transform="translate(0.492)"/></g><g transform="translate(66.515 -7.824)"><path class="a" d="M1.356,0-.492,8.6H3.256L1.408,0Z" transform="translate(0.492)"/></g><g class="b" transform="translate(0 -23.737)"><g transform="translate(162.873 63.488)"><path class="a" d="M1.582,0C-.27,0-.574,1.611-.574,5.773c0,4.18.3,5.769,2.156,5.769S3.738,9.953,3.738,5.773C3.738,1.611,3.434,0,1.582,0" transform="translate(0.574)"/></g></g><g transform="translate(61.49 40.45)"><path class="a" d="M1.1,0-.4,6.986H2.646L1.144,0Z" transform="translate(0.4)"/></g><g class="b" transform="translate(0 -23.737)"><g transform="translate(16.819 63.792)"><path class="a" d="M1.086,0H-.394V4.488H.913A2.046,2.046,0,0,0,3.264,2.156,1.93,1.93,0,0,0,1.086,0" transform="translate(0.394 0)"/></g><g transform="translate(62.693 40.911)"><path class="a" d="M1.1,0H-.4V4.556H.926A2.079,2.079,0,0,0,3.315,2.19,1.96,1.96,0,0,0,1.1,0" transform="translate(0.4 0)"/></g></g><g transform="translate(214.463 17.572)"><path class="a" d="M1.122,0-.407,7.1h3.1L1.167,0Z" transform="translate(0.407)"/></g><g transform="translate(186.112 40.45)"><path class="a" d="M1.1,0-.4,6.986H2.65L1.147,0Z" transform="translate(0.4)"/></g><g class="b" transform="translate(0 -23.737)"><g transform="translate(212.467 63.488)"><path class="a" d="M1.582,0C-.27,0-.574,1.611-.574,5.773c0,4.18.3,5.769,2.156,5.769S3.738,9.953,3.738,5.773C3.738,1.611,3.434,0,1.582,0" transform="translate(0.574)"/></g><g transform="translate(196.155 40.911)"><path class="a" d="M1.1,0H-.4V4.556H.926A2.079,2.079,0,0,0,3.315,2.19,1.96,1.96,0,0,0,1.1,0" transform="translate(0.4 0)"/></g><g transform="translate(6.921 7.264)"><path class="a" d="M137.759,17.39H113.887V-6.31H-49.987V68.32H182.236V17.39Zm19.377,7.6h3.936l4.18,15.79h-3.316l-.732-3.339H157l-.729,3.339h-3.32Zm-32.53,0H134.69V27.6h-3.452V40.781h-3.181V27.6h-3.452ZM113.349,35.85h3.185v.466c0,1.48.421,2.43,2.1,2.43a1.819,1.819,0,0,0,1.9-1.946c0-1.435-.732-1.968-2.832-2.7-2.832-.973-4.135-2.145-4.135-4.778,0-3.072,1.878-4.642,4.886-4.642,2.832,0,4.886,1.217,4.886,4.244v.443h-3.05c0-1.48-.511-2.344-1.724-2.344a1.63,1.63,0,0,0-1.814,1.837c0,.973.285,1.57,1.638,2.145l2.453,1.059c2.389,1.04,3.008,2.257,3.008,4.18,0,3.339-2.036,4.845-5.484,4.845-3.606,0-5.022-1.683-5.022-4.6ZM94.255-.98h3.857V12.353c0,1.9.454,3.324,2.25,3.324s2.246-1.42,2.246-3.324V-.98h3.857V12.353c0,4.875-2.971,6.16-6.1,6.16s-6.107-1.044-6.107-6.16ZM79.34-.98h7.121c3.162,0,5.089,1.66,5.089,4.928,0,2.543-1.018,4.255-3.189,4.71v.056c2.625.349,3.027,1.8,3.08,5.837.026,2.009.135,3.054.856,3.429v.158H88.121a3.705,3.705,0,0,1-.481-2.006l-.109-3.67c-.053-1.5-.721-2.411-2.276-2.411H83.193v8.086H79.34Zm-40.462,0h4.766L48.7,18.137H44.688L43.8,14.1H38.716l-.883,4.041H33.815Zm.454,32.3v2.61H34.025v6.855H30.84V24.992h8.823V27.6H34.025v3.715ZM9.1-.98h4.77l5.059,19.118H14.911L14.025,14.1H8.939l-.883,4.041H4.038Zm3.5,38.8c.019,1.66.109,2.52.706,2.832v.131H9.852a3.062,3.062,0,0,1-.394-1.656l-.09-3.031c-.045-1.239-.6-1.991-1.882-1.991h-1.7v6.678H2.6V24.992H8.481c2.61,0,4.2,1.371,4.2,4.071,0,2.1-.841,3.516-2.629,3.891V33c2.163.285,2.5,1.48,2.543,4.819M-14.359-.98h5.732L-5.9,12.515h.053L-3.087-.98H2.618V18.137H-.916V2.877H-.969l-3.4,15.26h-3l-3.4-15.26h-.053v15.26h-3.534Zm5.5,28.582v-2.61H1.228V27.6H-2.219V40.781H-5.4V27.6ZM-29.085-.98h3.854V12.353c0,1.9.454,3.324,2.25,3.324s2.25-1.42,2.25-3.324V-.98h3.857V12.353c0,4.875-2.975,6.16-6.107,6.16s-6.1-1.044-6.1-6.16Zm-14.141,0h3.857V6.678h.053L-34.441-.98h4.177l-5.194,8.2,5.784,10.922h-4.338l-3.936-7.842-1.42,2.167v5.675h-3.857Zm5.048,25.664c4.556,0,4.886,3.339,4.886,5.638h-3.185c0-2.3-.466-3.294-1.9-3.294-1.615,0-1.991,1.615-1.991,6.081,0,4.778.665,5.638,2.036,5.638,1.149,0,1.991-.593,1.991-4h3.181c0,3.407-.838,6.347-5.018,6.347-4.778,0-5.375-3.407-5.375-8.207s.6-8.2,5.375-8.2m5.495,38.776h-3.4a3.038,3.038,0,0,1-.391-1.634l-.09-2.982c-.041-1.221-.586-1.961-1.848-1.961H-40.09V63.46h-3.136V47.91h5.792c2.573,0,4.139,1.348,4.139,4.008,0,2.069-.826,3.463-2.592,3.835v.041c2.137.282,2.46,1.461,2.505,4.747.023,1.634.109,2.483.7,2.787Zm1.337-38.468h8.826V27.6h-5.641v3.715h5.307v2.61h-5.307v4.244H-22.3v2.61h-9.044Zm9.138,38.468h-8.909V47.91h8.691v2.569h-5.555v3.658h5.228V56.71h-5.228v4.18h5.773Zm5.9.3c-3.549,0-4.943-1.653-4.943-4.53V58.6h3.136v.458c0,1.457.413,2.4,2.069,2.4a1.8,1.8,0,0,0,1.874-1.919c0-1.412-.721-1.938-2.791-2.655-2.787-.958-4.071-2.111-4.071-4.7,0-3.027,1.852-4.575,4.815-4.575,2.787,0,4.811,1.2,4.811,4.18v.436h-3c0-1.457-.5-2.31-1.7-2.31a1.608,1.608,0,0,0-1.788,1.81c0,.958.282,1.544,1.611,2.111l2.419,1.048C-11.515,55.9-10.9,57.1-10.9,58.994c0,3.29-2.006,4.77-5.4,4.77m6.081-22.982h-3.624l-3.895-11.057h-.041V40.781h-2.918V24.992h3.67l3.846,10.817h.045V24.992h2.918Zm9.8,22.678H-9.337V47.91H-.646v2.569H-6.2v3.658H-.973V56.71H-6.2v4.18H-.428Zm9.322,0-.721-3.286H4.038L3.317,63.46H.049L4.166,47.91H8.042L12.158,63.46Zm14.9,0h-3.4A3.039,3.039,0,0,1,20,61.826l-.086-2.982c-.045-1.221-.59-1.961-1.852-1.961H16.383V63.46H13.251V47.91h5.792c2.569,0,4.139,1.348,4.139,4.008,0,2.069-.83,3.463-2.592,3.835v.041c2.133.282,2.46,1.461,2.5,4.747.023,1.634.109,2.483.7,2.787Zm.15-22.678H14.9V24.992h8.823V27.6H18.081v3.715h5.307v2.61H18.081v4.244H23.94Zm.18-22.644H20.267V-.98h7.121c3.159,0,5.089,1.66,5.089,4.928,0,2.543-1.018,4.255-3.189,4.71v.056c2.625.349,3.027,1.8,3.08,5.837.026,2.009.135,3.054.856,3.429v.158H29.048a3.705,3.705,0,0,1-.481-2.006l-.109-3.67c-.053-1.5-.721-2.411-2.276-2.411H24.121Zm6.2,45.627c-4.706,0-5.292-3.354-5.292-8.079s.586-8.079,5.292-8.079c4.485,0,4.811,3.286,4.811,5.555H32c0-2.269-.458-3.249-1.87-3.249-1.593,0-1.961,1.592-1.961,5.991,0,4.706.654,5.555,2,5.555,1.134,0,1.961-.59,1.961-3.944h3.136c0,3.354-.826,6.25-4.943,6.25m16.661-.3H43.85v-6.9H40.192v6.9H37.056V47.91h3.136v5.946H43.85V47.91h3.136Zm-.864-22.366c-4.778,0-5.375-3.407-5.375-8.207s.6-8.2,5.375-8.2,5.371,3.407,5.371,8.2-.6,8.207-5.371,8.207M49.856,8.364c0-6.426,1.5-9.72,6.426-9.72,4.233,0,5.946,2.171,5.946,6.055h-3.7c0-1.42-.642-3.215-2.2-3.215-1.874,0-2.622,1.927-2.622,6.693,0,4.608.428,7.5,2.648,7.5a2.811,2.811,0,0,0,2.385-3.054V10.667H56.2V7.831h6.239V18.137H59.6V16.372H59.55a4.3,4.3,0,0,1-4.019,2.141c-4.74,0-5.675-3.534-5.675-10.148m3.519,16.627h5.882c2.61,0,4.2,1.371,4.2,4.071,0,2.1-.841,3.516-2.633,3.891V33c2.167.285,2.5,1.48,2.543,4.819.023,1.66.113,2.52.71,2.832v.131H60.628a3.1,3.1,0,0,1-.4-1.656l-.086-3.031c-.045-1.239-.6-1.991-1.882-1.991h-1.7v6.678H53.375ZM62.949,63.46l-.871-1.2a4.923,4.923,0,0,1-3.745,1.5c-3.944,0-4.77-2.742-4.77-4.485,0-1.807,1.2-3.29,3.136-4.488l-.545-.8a4.41,4.41,0,0,1-1.044-2.809c0-2.024,1.634-3.268,3.962-3.268,2.659,0,3.876,1.439,3.876,3.245,0,1.547-.871,2.746-2.7,4.03l2.332,3.159a6.368,6.368,0,0,0,.545-2.355h2.7a8.065,8.065,0,0,1-1.592,4.6l2.047,2.873Zm1.743-51.106V-.98h3.857V12.353c0,1.9.454,3.324,2.246,3.324s2.25-1.42,2.25-3.324V-.98H76.9V12.353c0,4.875-2.975,6.16-6.107,6.16s-6.1-1.044-6.1-6.16m6.441,12.639h3.185v15.79H71.133ZM75.821,63.46H72.684V47.91h3.136Zm.864-38.468h3.67L84.2,35.809h.041V24.992h2.922v15.79H83.539L79.648,29.724H79.6V40.781H76.684ZM88.474,63.46H84.9L81.071,52.571h-.045V63.46H78.153V47.91h3.613l3.79,10.652H85.6V47.91h2.873Zm1.059-38.468H94.75c4.424,0,5.221,3.031,5.221,7.673,0,5.6-1.194,8.116-5.42,8.116H89.533ZM100.978,63.46H97.406L93.571,52.571H93.53V63.46H90.653V47.91H94.27l3.79,10.652H98.1V47.91h2.877Zm.894-38.468h3.185V36c0,1.57.376,2.742,1.859,2.742s1.855-1.172,1.855-2.742V24.992h3.185V36c0,4.026-2.453,5.089-5.04,5.089s-5.044-.864-5.044-5.089Zm6.25,38.772c-4.706,0-5.292-3.354-5.292-8.079s.586-8.079,5.292-8.079,5.292,3.354,5.292,8.079-.59,8.079-5.292,8.079m9.694-.3L114.243,47.91H117.6l2.2,11.5h.064l2.31-11.5h3.245L121.842,63.46Zm15.7,0-.717-3.286h-4.139l-.717,3.286h-3.268L128.79,47.91h3.876l4.116,15.549Zm12.263-12.98h-3.4V63.46h-3.136V50.479h-3.4V47.91h9.931Zm.988-9.7h-3.452a3.1,3.1,0,0,1-.4-1.656l-.086-3.031c-.045-1.239-.6-1.991-1.882-1.991h-1.7v6.678h-3.185V24.992h5.882c2.61,0,4.2,1.371,4.2,4.071,0,2.1-.841,3.516-2.633,3.891V33c2.167.285,2.5,1.48,2.543,4.819.023,1.66.113,2.52.71,2.832Zm3.651,22.678H147.28V47.91h3.136ZM151.7,40.781h-3.185V24.992H151.7Zm6.017,22.982c-4.7,0-5.292-3.354-5.292-8.079s.59-8.079,5.292-8.079,5.292,3.354,5.292,8.079-.586,8.079-5.292,8.079m17.469-.3h-3.572l-3.835-10.888h-.041V63.46h-2.877V47.91h3.617l3.79,10.652h.041V47.91h2.877Zm0-22.678H166.36V24.992h3.181V38.171h5.641Z" transform="translate(49.987 6.31)"/></g><g transform="translate(225.316 8.557)"><path class="a" d="M2.144,1.549C2.144.077,1.558-.562.138-.562H-.778v4.27H.161c1.348,0,1.983-.864,1.983-2.16" transform="translate(0.778 0.562)"/></g><g transform="translate(-0.001 0.001)"><path class="a" d="M179.354,0H-65.08V89.154H181.307V0Zm-9.439,5.153h4.729V23.3h-4.729Zm-14.4,0H162.9c3.613,0,4.984,2.032,4.984,4.826,0,2.415-.943,3.993-3.1,4.319v.053c2.287.2,2.975,1.653,2.975,4.068v1.547a7.4,7.4,0,0,0,.229,2.516,1.237,1.237,0,0,0,.533.56V23.3h-5.033a9.522,9.522,0,0,1-.458-3.455V18.622c0-2.058-.406-2.592-1.547-2.592h-1.247V23.3h-4.725Zm-6.787,0h4.729V23.3h-4.729Zm-6.378,13.112h4.27V23.3h-4.27ZM134.6,4.8c4.27,0,5.87,2.235,5.87,5.743v1.146h-4.575V10.667c0-2.058-.379-2.67-1.3-2.67-1.45,0-1.6,1.322-1.6,6.227s.15,6.227,1.6,6.227c1.168,0,1.423-1.018,1.423-4.447H140.6v1.345c0,5.085-2.975,6.306-6,6.306-5.311,0-6.479-2.67-6.479-9.431,0-6.937,1.574-9.427,6.479-9.427m-20.252.357h4.725v6.963h.053l3.508-6.963h5.033l-4.575,7.929L128.221,23.3h-5.386l-2.772-6.329-.992,1.525v4.8h-4.725Zm62.772,79.813H-60.892V4.188H109.855V27.974h67.264Z" transform="translate(65.08)"/></g></g></g></svg>