<svg xmlns="http://www.w3.org/2000/svg" width="215.159" height="215.159" viewBox="0 0 215.159 215.159"><defs><style>.a{fill:#591f2b;}.b{fill:#939598;}</style></defs><g transform="translate(-212.091 -122.091)"><rect class="a" width="215.159" height="215.159" transform="translate(212.091 122.091)"/><path class="b" d="M406.432,302.087h1.685v10.767h-1.685Zm-4.982-1.721h-3.04v14.064h10.731a1.845,1.845,0,0,0,2.087-2.087v-9.889a1.845,1.845,0,0,0-2.087-2.087h-5.97v12.489H401.45Zm-1.685-1.538h10.182a6.239,6.239,0,0,0-5.274-2.674,6.6,6.6,0,0,0-2.893.513,4.832,4.832,0,0,0-2.015,2.161m-13.111,1.538h-2.784v14.064h2.784a6.04,6.04,0,0,1,1.722-2.857v2.857h8.569V300.366H393.98v12.2h-2.418v-12.2h-3.186v8.863a6.49,6.49,0,0,0-1.722,2.014Zm-3.111-18.373h2.29v7.93h-2.29Zm2.29-1.909h-1.612v-3.308h1.612Zm3.35,1.909h2.29v7.93h-2.29v-7.93Zm-6.6,9.626H387.1a1.873,1.873,0,0,0,2.045-1.442,1.45,1.45,0,0,1,.589,1.442h2.737a2.185,2.185,0,0,0,2.442-2.5v-6.638a2.146,2.146,0,0,0-2.46-2.394h-3.265v-3.308h3.181v-1.485h-8.736a2.175,2.175,0,0,0-2.5,2.418v2.672a2.3,2.3,0,0,0-1.018,2.12v6.616a2.2,2.2,0,0,0,2.471,2.5m-4.972,10.468h1.684v10.767h-1.684Zm-4.981-1.721h-3.04v14.064h10.731a1.845,1.845,0,0,0,2.087-2.087v-9.889a1.845,1.845,0,0,0-2.087-2.087h-5.97v12.489h-1.722Zm-4.264-18.925h1.612v8.27h-1.612Zm0,10.093V289.88a1.928,1.928,0,0,1,.932,1.654h9.33V275.249h-3.6V289.71h-2.969l1.272-.8v-6.714a2.15,2.15,0,0,0-2.417-2.449h-2.544v-2.8h3.944v-1.7h-10.39a2.174,2.174,0,0,0-2.459,2.46v13.824h3.562V276.945h2.247v14.588Zm-7.422-18.066h12q-1.442-3.519-6.15-3.52a7.075,7.075,0,0,0-3.944.933,6.256,6.256,0,0,0-1.909,2.586m-11.5,32.318h1.575V313h-1.575ZM358.2,301.1h2.051V313H358.2Zm4.981,0h1.978V313h-1.941V301.867Zm-16.591.732V312.3a1.877,1.877,0,0,0,2.124,2.125h3.04a1.858,1.858,0,0,0,2.087-2.117v-8.357h-4.395V301.1h7.178l-1.172.549V312.3a1.861,1.861,0,0,0,2.087,2.125h3.626a1.826,1.826,0,0,0,1.941-1.062,4.166,4.166,0,0,1,.439,1.062h2.49a1.862,1.862,0,0,0,2.087-2.125V301.831a1.845,1.845,0,0,0-2.087-2.087h-2.82a1.241,1.241,0,0,1-.257.842,1.981,1.981,0,0,0-1.794-.842H348.712a1.861,1.861,0,0,0-2.124,2.087m-36.843-1.465h-2.783v14.064h2.783a6.034,6.034,0,0,1,1.721-2.857v2.857h8.57V300.366h-2.967v12.2h-2.417v-12.2h-3.186v8.863a6.488,6.488,0,0,0-1.721,2.014Zm-1.9-10.443h-2.29v-7.93h2.29Zm0-9.839h-1.612v-3.308h1.612Zm3.351,1.909h2.29v7.93H311.2v-7.93Zm0-1.909v-3.308h3.18v-1.485h-8.735a2.175,2.175,0,0,0-2.5,2.418v2.672a2.305,2.305,0,0,0-1.018,2.12v6.616a2.2,2.2,0,0,0,2.471,2.5h4.517a1.872,1.872,0,0,0,2.045-1.442,1.451,1.451,0,0,1,.59,1.442h2.737a2.185,2.185,0,0,0,2.442-2.5v-6.638a2.146,2.146,0,0,0-2.46-2.394Zm1.695,16.18a6.148,6.148,0,0,0-3.149.7,4.628,4.628,0,0,0-1.612,1.868h9.632q-1.136-2.563-4.871-2.564m-17.872,5.677v12.489h2.893V301.318h2.674v13.112h2.893V301.318h2.308v-1.5h-8.68a1.861,1.861,0,0,0-2.087,2.124m.063-24.7h1.951v12.468h-1.951Zm-3.774-1.994V289.71h-1.994V275.249H285.8v16.284h12.425a2.136,2.136,0,0,0,2.418-2.417v-11.45a2.137,2.137,0,0,0-2.418-2.418Zm-3.137,27.094h2.2v10.438h-2.2Zm-5.054,13.551h-7.838v1.135h4.871v1.245a1.862,1.862,0,0,0,2.088,2.125h8.9a1.871,1.871,0,0,0,2.124-2.108v-2.581h-5.091v-1.282h3.26a1.862,1.862,0,0,0,2.124-2.087V302.49a1.878,1.878,0,0,0-2.124-2.124h-6.52v12.416h-1.794V300.366h-3.113v14.064h4.907v3.552h3.26v-.952h1.9v1.794h-6.958Zm-16.065-24.361V276.352h3.1v15.182h3.35V276.352h2.671v-1.738h-10.05a2.155,2.155,0,0,0-2.417,2.459v14.461Zm9.583-5.979q-1.144,0-1.145,1.909v2.163q0,1.908,1.145,1.908h1.485q1.1,0,1.1-1.908v-2.163q0-1.908-1.1-1.909Zm-7.582,16.5h1.758v11.28h-1.758Zm-4.542-1.684h-3.259V314.5h10.511a1.848,1.848,0,0,0,2.087-2.093V302.5q0-2.13-2.015-2.13v-3.3h3.406V314.5h3.26V297.325a1.871,1.871,0,0,0-2.146-2.087h-5.326a1.829,1.829,0,0,0-2.051,2.087v2.308a5.62,5.62,0,0,1,2.051.732h-5.018V313.33h-1.5ZM257,281.272h1.7v8.567H257Zm0-1.994v-2.162h3.435v-1.824h-10.3a2.137,2.137,0,0,0-2.417,2.418v13.824h3.35v-14.5h2.247v14.5H257V290.3q.974.9.975,1.229H259.8a2.132,2.132,0,0,0,2.417-2.408v-9.847Zm-4.027,33.54h-2.417v-4.936q0-1.1.18-1.215.18-.183,1.154-.184h1.082Zm0-7.911h-1.538V302.2h1.538Zm4.358,11.28H247.22v1.648h10.7a1.845,1.845,0,0,0,2.087-2.087v-8.753a1.845,1.845,0,0,0-2.087-2.087H255.8V302.2h2.454v-1.831h-7.545a1.862,1.862,0,0,0-2.087,2.124v2.637a1.813,1.813,0,0,0-1.026,1.868v5.42a1.862,1.862,0,0,0,2.124,2.088h3.992a1.849,1.849,0,0,0,2.087-2.1v-5.923h1.538Zm63.126-58.972h3.016v-97.9h-.589v-.164h-46.3v68.695h17.779V176.931H305.7v62.507H265V159.316H247.22v97.9h73.242Zm7.784,19.136h2.672v-1.738H320.867a2.155,2.155,0,0,0-2.417,2.459v14.461h3.35V276.352h3.1v15.182h3.35Zm-3.853,30.386h1.685v6.116h-1.685Zm6.74-6.372h-7.545a1.861,1.861,0,0,0-2.087,2.124v9.852a1.845,1.845,0,0,0,2.087,2.087h3a1.845,1.845,0,0,0,2.087-2.087v-5.421a1.845,1.845,0,0,0-2.087-2.087h-2.2v-2.967h5.677v10.988h-.952v1.575h5.567v3.809h3.186V300.366h-3.186v12.489H332.6l.659-.331V302.5a1.88,1.88,0,0,0-2.124-2.13m4.45-18.67h1.823v7.761h-1.823Zm7.887-6.446h-8.736a2.174,2.174,0,0,0-2.459,2.46v11.408a2.155,2.155,0,0,0,2.459,2.417h3.52a2.136,2.136,0,0,0,2.417-2.417V279.49h-5.088v-2.333h6.7v11.959a2.136,2.136,0,0,0,2.417,2.417h6.065a2.136,2.136,0,0,0,2.417-2.417V277.709a2.156,2.156,0,0,0-2.417-2.46h-1.994v-3.9h5.513v20.186h3.52V272.2a2.155,2.155,0,0,0-2.417-2.459h-8.057a2.174,2.174,0,0,0-2.46,2.459V275.5l.551.169,1.272,1.823h3.138v11.959h-3.944v-11.7a2.175,2.175,0,0,0-2.418-2.5m20.814-57.358H352.693V206.3h11.591Zm38.1,40.254h8.889V188.522H382.063v-29.37H335.069v17.779h29.215v11.591H335.069v41.746h46.994V206.3H393.5v34.066h-58.43v17.779h67.319Zm-2.052,12.82a5.6,5.6,0,0,0-2.332,2.5h11.789a7.224,7.224,0,0,0-6.107-3.1,7.657,7.657,0,0,0-3.35.594m7.337,18.744h-1.951V277.242h1.951Zm3.6-.593v-11.45a2.137,2.137,0,0,0-2.417-2.418h-6.913V289.71h-1.993V275.249h-3.52v16.284h12.426a2.136,2.136,0,0,0,2.417-2.417" transform="translate(-9.578 -10.105)"/></g></svg>